# xmcd
#
# Track frame offsets: 
#        150
#        28968
#        47228
#        66473
#        83857
#        104334
#        122449
#        143063
#        160793
#        177639
#        194093
#        213852
#
# Disc length: 3135 seconds
#
# Revision: 2
# Processed by: cddbd v1.5.2PL0 Copyright (c) Steve Scherf et al.
# Submitted via: ExactAudioCopyFreeDBPlugin 1.0
#
DISCID=b30c3d0c
DTITLE=李涵暖 - DTS51飞天
DYEAR=2006
DGENRE=DTS
TTITLE0=艾里葡与赛乃姆
TTITLE1=梦江南
TTITLE2=我和草原有个约定
TTITLE3=送我一只玫瑰花
TTITLE4=月牙泉
TTITLE5=四季歌
TTITLE6=卖花姑娘
TTITLE7=青春舞曲
TTITLE8=雁南飞
TTITLE9=出塞曲
TTITLE10=牧歌
TTITLE11=天路
EXTD=
EXTT0=
EXTT1=
EXTT2=
EXTT3=
EXTT4=
EXTT5=
EXTT6=
EXTT7=
EXTT8=
EXTT9=
EXTT10=
EXTT11=
PLAYORDER=
